<svg width="32" height="32" viewBox="0 0 32 32" fill="none" xmlns="http://www.w3.org/2000/svg">
<path opacity="0.3" d="M26.7037 26.8382C20.6365 32.9489 10.8 32.9878 4.68122 26.9549C9.00568 31.1974 15.9377 31.1585 20.2235 26.8511C24.535 22.5049 24.535 15.46 20.2106 11.1268C15.8861 6.78049 8.8766 6.79347 4.56504 11.1397C0.292222 15.4341 0.266404 22.3881 4.47468 26.7344C-1.52793 20.5847 -1.4892 10.7246 4.57795 4.61385C10.6838 -1.53579 20.5849 -1.53579 26.7037 4.60088C32.8096 10.7375 32.8096 20.7015 26.7037 26.8382Z" fill="#4863F7"/>
<path opacity="0.6" d="M20.2231 26.838C15.9374 31.1453 9.00533 31.1842 4.68087 26.9418C4.64214 26.9028 4.61632 26.8769 4.57759 26.838L4.56469 26.825C7.10773 29.3679 11.2127 29.3679 13.7558 26.825C16.2859 24.2691 16.2859 20.1434 13.7558 17.5876C11.2127 15.0577 7.09482 15.0577 4.56469 17.6005C2.04746 20.1305 2.03455 24.2172 4.51305 26.7731C4.51305 26.7731 4.51305 26.7731 4.50014 26.7601C4.50014 26.7601 4.50014 26.7601 4.48723 26.7471L4.47432 26.7342L4.46142 26.7212C0.266043 22.3879 0.291861 15.4339 4.57759 11.1266C8.90206 6.78028 15.8986 6.78028 20.2231 11.1136C24.5476 15.4598 24.5476 22.5047 20.2231 26.838Z" fill="#4863F7"/>
<path d="M13.7566 26.8384C11.2265 29.3943 7.10856 29.3943 4.56552 26.8384C4.5397 26.8125 4.52679 26.7995 4.50098 26.7735C2.02248 24.2177 2.03539 20.1309 4.55261 17.601C7.08274 15.0451 11.2007 15.0451 13.7437 17.601C16.2867 20.1439 16.2867 24.2825 13.7566 26.8384Z" fill="#4863F7"/>
</svg>
